<mxfile host="app.diagrams.net" modified="2024-03-28T09:07:21.575Z" agent="Mozilla/5.0 (Windows NT 10.0; Win64; x64) AppleWebKit/537.36 (KHTML, like Gecko) Chrome/122.0.0.0 Safari/537.36 Edg/122.0.0.0" version="24.1.0" etag="sLnmkJqVD0sNo4ZzddF4" type="github">
  <diagram name="Page-1" id="j61_uvuA5mhlUaekp-A-">
    <mxGraphModel>
      <root>
        <mxCell id="0" />
        <mxCell id="1" parent="0" />
      </root>
    </mxGraphModel>
  </diagram>
</mxfile>
